<?xml version="1.0" encoding="UTF-8"?>
<svg id="Layer_1" xmlns="http://www.w3.org/2000/svg" version="1.1" viewBox="0 0 325.88 63.63">
  <!-- Generator: Adobe Illustrator 29.7.1, SVG Export Plug-In . SVG Version: 2.1.1 Build 8)  -->
  <defs>
    <style>
      .st0 {
        isolation: isolate;
      }
    </style>
  </defs>
  <g class="st0">
    <path d="M2.64,63.28c-1.21,0-2.02-.35-2.42-1.05-.4-.7-.27-1.54.39-2.52L34.98,2.8c.61-1.07,1.24-1.81,1.89-2.21.65-.4,1.56-.59,2.73-.59.93,0,1.66.22,2.17.67.51.44.84,1.37.98,2.76l7.07,56.7c.19.93.01,1.69-.52,2.28-.54.58-1.41.88-2.62.88-1.03,0-1.72-.2-2.06-.6-.35-.4-.62-1.06-.81-2l-1.75-15.05h-26.04l-9.1,14.91c-.7,1.12-1.29,1.86-1.78,2.21-.49.35-1.32.53-2.49.53ZM19.44,40.04h21.98l-3.92-30.31-18.06,30.31Z"/>
    <path d="M72.08,63.63c-2.94,0-5.38-.61-7.31-1.82-1.94-1.21-3.38-2.87-4.34-4.97-.96-2.1-1.44-4.48-1.44-7.14s.43-5.46,1.29-8.26c.86-2.8,2.16-5.37,3.88-7.7,1.73-2.33,3.85-4.21,6.37-5.64,2.52-1.42,5.46-2.13,8.82-2.13,2.47,0,4.67.43,6.58,1.29,1.91.86,3.62,2.16,5.11,3.88.65.79.89,1.47.7,2.03-.19.56-.56,1.1-1.12,1.61-.61.51-1.21.8-1.82.88-.61.07-1.21-.22-1.82-.88-.98-.98-2.1-1.76-3.36-2.35-1.26-.58-2.85-.88-4.76-.88-2.24,0-4.21.55-5.92,1.65-1.7,1.1-3.13,2.53-4.27,4.3-1.14,1.77-2,3.69-2.56,5.74-.56,2.05-.84,4.08-.84,6.09,0,1.77.27,3.3.81,4.58.54,1.28,1.35,2.28,2.45,2.98,1.1.7,2.49,1.07,4.17,1.12,1.63,0,3.13-.33,4.48-.98,1.35-.65,2.59-1.52,3.71-2.59,1.12-1.07,2.19-2.19,3.22-3.36.61-.65,1.26-.9,1.96-.73.7.16,1.28.5,1.75,1.01.56.51.89,1.04.98,1.58.09.54-.14,1.15-.7,1.85-1.68,2.19-3.41,3.93-5.18,5.21-1.77,1.28-3.56,2.21-5.35,2.77-1.8.56-3.63.84-5.5.84Z"/>
    <path d="M103.44,63.49c-1.73,0-3.24-.48-4.55-1.44-1.31-.96-2.32-2.31-3.04-4.06-.72-1.75-1.08-3.84-1.08-6.27,0-2.19.3-4.49.91-6.89.61-2.4,1.52-4.71,2.73-6.93,1.21-2.22,2.7-4.22,4.45-6.02,1.75-1.8,3.76-3.23,6.02-4.3,2.26-1.07,4.77-1.61,7.52-1.61,1.4,0,2.82.17,4.27.53,1.45.35,2.87.85,4.27,1.5l.07-.21c.19-.65.52-1.07,1.02-1.26s1.13-.28,1.92-.28c1.35,0,2.25.21,2.7.63.44.42.52,1.05.25,1.89l-6.79,26.25c-.23.84-.35,1.48-.35,1.92s.1.74.31.88c.21.14.43.21.67.21.47,0,.92-.14,1.36-.42.44-.28.92-.71,1.44-1.29.51-.58,1.07-1.27,1.68-2.06.33-.47.69-.74,1.08-.81.4-.07.85.06,1.36.39.75.42,1.21.86,1.4,1.33.19.47.16.93-.07,1.4-.42.84-1.07,1.8-1.96,2.87-.89,1.07-1.96,2-3.22,2.76-1.26.77-2.71,1.16-4.34,1.16s-2.79-.34-3.6-1.01c-.82-.68-1.34-1.54-1.57-2.59-.23-1.05-.28-2.19-.14-3.43.14-1.24.35-2.42.63-3.53.05-.23.08-.49.1-.77.02-.28.06-.58.1-.91-1.73,2.75-3.46,5.05-5.21,6.9s-3.49,3.22-5.21,4.13c-1.73.91-3.43,1.37-5.11,1.37ZM101.13,50.89c0,1.35.15,2.57.45,3.64.3,1.07.76,1.9,1.37,2.48.61.58,1.35.88,2.24.88,1.68,0,3.51-.88,5.5-2.62,1.98-1.75,4.02-4.29,6.12-7.63,2.1-3.34,4.18-7.36,6.23-12.08l.63-2.45c-1.49-.65-2.89-1.08-4.2-1.29-1.31-.21-2.5-.31-3.57-.31-1.87,0-3.58.41-5.14,1.22-1.56.82-2.94,1.9-4.13,3.25-1.19,1.35-2.19,2.88-3.01,4.58-.82,1.7-1.44,3.44-1.85,5.22s-.63,3.48-.63,5.11Z"/>
    <path d="M147.05,63.49c-1.77,0-3.31-.48-4.62-1.44-1.31-.96-2.32-2.31-3.04-4.06-.72-1.75-1.08-3.84-1.08-6.27,0-2.19.3-4.49.91-6.89.61-2.4,1.52-4.71,2.73-6.93,1.21-2.22,2.7-4.22,4.45-6.02,1.75-1.8,3.76-3.23,6.02-4.3,2.26-1.07,4.77-1.61,7.52-1.61,1.45,0,2.94.19,4.48.56,1.54.37,3.03.91,4.48,1.61l6.72-25.97c.19-.89.5-1.47.95-1.75.44-.28,1.15-.42,2.13-.42,1.35,0,2.24.21,2.66.63s.51,1.05.28,1.89l-13.51,52.5c-.23,1.03-.29,1.79-.17,2.28.12.49.46.74,1.01.74.47,0,.89-.14,1.26-.42.37-.28.82-.7,1.33-1.26.51-.56,1.1-1.28,1.75-2.17.33-.42.68-.67,1.05-.74.37-.07.84.06,1.4.39.7.42,1.14.86,1.33,1.33.19.47.16.91-.07,1.33-.89,1.54-1.82,2.82-2.8,3.85-.98,1.03-2.02,1.79-3.11,2.28-1.1.49-2.28.73-3.54.73-1.63,0-2.91-.4-3.82-1.19s-1.45-1.98-1.61-3.57c-.16-1.59.06-3.55.67-5.88.05-.28.07-.57.07-.88s.02-.57.07-.8c-1.77,2.8-3.56,5.13-5.36,7-1.8,1.87-3.59,3.24-5.39,4.13-1.8.89-3.51,1.33-5.15,1.33ZM144.67,50.89c0,1.31.15,2.5.45,3.57.3,1.07.77,1.91,1.4,2.52.63.61,1.39.91,2.27.91,1.68,0,3.52-.83,5.53-2.48,2.01-1.66,4.08-4.13,6.23-7.42,2.15-3.29,4.27-7.38,6.37-12.28l.63-2.52c-1.59-.7-3.07-1.16-4.45-1.37-1.38-.21-2.6-.31-3.68-.31-1.87,0-3.58.41-5.14,1.22-1.56.82-2.94,1.9-4.13,3.25-1.19,1.35-2.19,2.88-3.01,4.58-.82,1.7-1.44,3.44-1.85,5.22s-.63,3.48-.63,5.11Z"/>
    <path d="M196.54,63.63c-2.85,0-5.19-.59-7.04-1.79-1.84-1.19-3.23-2.83-4.17-4.93-.93-2.1-1.4-4.43-1.4-7,0-2.8.48-5.61,1.43-8.44.96-2.82,2.33-5.4,4.13-7.73,1.8-2.33,4-4.21,6.62-5.64,2.61-1.42,5.6-2.13,8.96-2.13,2.19,0,4.04.35,5.53,1.05,1.49.7,2.64,1.67,3.43,2.91.79,1.24,1.19,2.74,1.19,4.51,0,1.91-.57,3.64-1.72,5.18s-2.67,2.92-4.58,4.13c-1.91,1.21-4.08,2.26-6.51,3.15-2.43.89-4.92,1.63-7.49,2.24-2.57.61-5.09,1.12-7.56,1.54l.42-4.97c1.54-.23,3.27-.56,5.18-.98,1.91-.42,3.79-.91,5.64-1.47,1.84-.56,3.55-1.24,5.11-2.03,1.56-.79,2.81-1.7,3.75-2.73.93-1.03,1.4-2.19,1.4-3.5s-.42-2.16-1.26-2.7c-.84-.54-1.94-.8-3.29-.8-2.1,0-4.04.54-5.81,1.61-1.77,1.07-3.27,2.49-4.48,4.24-1.21,1.75-2.15,3.67-2.8,5.78-.65,2.1-.98,4.18-.98,6.23,0,1.77.25,3.31.73,4.62.49,1.31,1.27,2.31,2.35,3.01,1.07.7,2.43,1.05,4.06,1.05s3-.32,4.24-.95c1.24-.63,2.39-1.46,3.46-2.49,1.07-1.03,2.15-2.15,3.22-3.36.56-.65,1.19-.91,1.89-.77.7.14,1.31.47,1.82.98s.82,1.05.91,1.61c.09.56-.12,1.17-.63,1.82-1.68,2.19-3.39,3.93-5.14,5.21-1.75,1.28-3.5,2.19-5.25,2.73-1.75.54-3.54.8-5.36.8Z"/>
    <path d="M222.3,63.35c-.79,0-1.5-.16-2.13-.49s-.8-.89-.53-1.68l8.12-32.76c.28-.89.64-1.47,1.08-1.75.44-.28,1.13-.42,2.07-.42,1.35,0,2.24.21,2.66.63.42.42.49,1.05.21,1.89l-2.59,10.85c1.26-2.29,2.57-4.28,3.92-5.99,1.35-1.7,2.73-3.13,4.13-4.27,1.4-1.14,2.81-2,4.23-2.56,1.42-.56,2.83-.84,4.24-.84,2.29,0,4.03.54,5.21,1.61,1.19,1.07,1.87,2.59,2.03,4.55.16,1.96-.11,4.27-.81,6.93l-5.53,22.47c-.19.61-.51,1.06-.98,1.36-.47.3-1.24.46-2.31.46-.84,0-1.56-.16-2.17-.49-.61-.33-.77-.89-.49-1.68l5.81-23.17c.33-1.26.5-2.37.53-3.33.02-.96-.2-1.71-.67-2.27-.47-.56-1.33-.84-2.59-.84-1.49,0-3.09.67-4.79,2-1.7,1.33-3.42,3.2-5.15,5.6-1.73,2.4-3.41,5.24-5.04,8.5-1.63,3.27-3.15,6.81-4.55,10.64l-.63,3.22c-.14.61-.46,1.06-.95,1.36-.49.3-1.27.46-2.34.46ZM272.49,63.35c-1.54,0-2.72-.33-3.54-.98-.82-.65-1.34-1.5-1.58-2.56-.23-1.05-.27-2.19-.11-3.43.16-1.24.39-2.44.67-3.6l3.64-14.77c.33-1.26.5-2.37.52-3.33.02-.96-.2-1.71-.67-2.27-.47-.56-1.33-.84-2.59-.84-1.54,0-3.2.71-4.97,2.14-1.77,1.42-3.54,3.42-5.29,5.98-1.75,2.57-3.45,5.57-5.11,9-1.66,3.43-3.16,7.17-4.52,11.24h-2.66c1.45-5.55,3.1-10.44,4.97-14.67,1.87-4.22,3.88-7.77,6.05-10.64,2.17-2.87,4.4-5.03,6.68-6.48,2.29-1.45,4.55-2.17,6.79-2.17s4.08.54,5.25,1.61c1.17,1.07,1.84,2.59,2.03,4.55.19,1.96-.09,4.27-.84,6.93l-4.06,15.96c-.23.84-.35,1.48-.35,1.92s.11.74.32.88c.21.14.43.21.67.21.47,0,.93-.14,1.4-.42.47-.28.96-.71,1.47-1.29.51-.58,1.05-1.27,1.61-2.06.37-.47.75-.74,1.12-.81.37-.07.82.06,1.33.39.79.42,1.27.86,1.43,1.33.16.47.13.93-.1,1.4-.47.84-1.14,1.81-2.03,2.91-.89,1.1-1.96,2.02-3.22,2.76s-2.71,1.12-4.34,1.12Z"/>
    <path d="M296.15,63.49c-1.73,0-3.24-.48-4.55-1.44-1.31-.96-2.32-2.31-3.04-4.06-.72-1.75-1.08-3.84-1.08-6.27,0-2.19.3-4.49.91-6.89.61-2.4,1.52-4.71,2.73-6.93,1.21-2.22,2.7-4.22,4.45-6.02,1.75-1.8,3.76-3.23,6.02-4.3,2.26-1.07,4.77-1.61,7.53-1.61,1.4,0,2.82.17,4.27.53,1.45.35,2.87.85,4.27,1.5l.07-.21c.19-.65.53-1.07,1.02-1.26s1.13-.28,1.92-.28c1.35,0,2.25.21,2.7.63.44.42.52,1.05.25,1.89l-6.79,26.25c-.23.84-.35,1.48-.35,1.92s.11.74.32.88c.21.14.43.21.67.21.47,0,.92-.14,1.36-.42.44-.28.92-.71,1.44-1.29.51-.58,1.07-1.27,1.68-2.06.33-.47.69-.74,1.08-.81.4-.07.85.06,1.37.39.75.42,1.21.86,1.4,1.33.19.47.16.93-.07,1.4-.42.84-1.07,1.8-1.96,2.87-.89,1.07-1.96,2-3.22,2.76-1.26.77-2.71,1.16-4.34,1.16s-2.79-.34-3.6-1.01c-.82-.68-1.34-1.54-1.58-2.59-.23-1.05-.28-2.19-.14-3.43.14-1.24.35-2.42.63-3.53.05-.23.08-.49.1-.77s.06-.58.11-.91c-1.73,2.75-3.46,5.05-5.21,6.9s-3.49,3.22-5.21,4.13c-1.73.91-3.43,1.37-5.11,1.37ZM293.84,50.89c0,1.35.15,2.57.45,3.64s.76,1.9,1.37,2.48c.61.58,1.35.88,2.24.88,1.68,0,3.51-.88,5.5-2.62,1.98-1.75,4.02-4.29,6.12-7.63,2.1-3.34,4.18-7.36,6.23-12.08l.63-2.45c-1.49-.65-2.89-1.08-4.2-1.29-1.31-.21-2.5-.31-3.57-.31-1.87,0-3.58.41-5.14,1.22-1.56.82-2.94,1.9-4.13,3.25-1.19,1.35-2.19,2.88-3.01,4.58-.82,1.7-1.43,3.44-1.85,5.22s-.63,3.48-.63,5.11Z"/>
  </g>
</svg>